<svg width="337" height="225" viewBox="0 0 337 225" fill="none" xmlns="http://www.w3.org/2000/svg">
<path fill-rule="evenodd" clip-rule="evenodd" d="M125.668 147.469C125.668 171.935 105.819 191.768 81.3338 191.768C56.8491 191.768 37 171.935 37 147.469C37 123.003 56.8491 103.17 81.3338 103.17C105.819 103.17 125.668 123.003 125.668 147.469Z" fill="#412EDB"/>
<path fill-rule="evenodd" clip-rule="evenodd" d="M214.317 71.3006L213.441 75.8547L210.84 89.4475L198.532 153.655C196.16 166.022 184.204 174.128 171.823 171.758L70.0641 152.282C57.6876 149.913 49.5754 137.966 51.947 125.599L67.7366 43.2451C70.1083 30.8737 82.0638 22.7726 94.4402 25.1373L186.019 42.6686C190.834 43.8098 197.597 45.3567 201.539 46.3427C210.806 50.6426 216.327 60.8199 214.317 71.3006Z" fill="white"/>
<path fill-rule="evenodd" clip-rule="evenodd" d="M206.633 69.8302L205.759 74.3795L203.155 87.9798L197.412 117.949L190.849 152.183C190.125 155.951 188.021 159.168 185.127 161.346C182.604 163.242 179.479 164.353 176.143 164.353C175.195 164.353 174.239 164.261 173.294 164.081L167.571 162.987L136.837 157.103L119.312 153.749L114.236 152.778L107.772 151.541L71.5359 144.603C67.6015 143.852 64.1982 141.613 61.9503 138.301C59.6994 134.988 58.8765 130.999 59.6313 127.072L66.544 91.0172L75.422 44.7156C76.5304 38.9296 80.8895 34.4483 86.3775 33.0247C87.5811 32.7121 88.8392 32.5457 90.1279 32.5457C90.5257 32.5457 90.9236 32.563 91.3248 32.5932C91.8756 32.6374 92.4265 32.7087 92.9708 32.8141L97.5132 33.6838L113.77 36.7963L145.902 42.9489L163.185 46.2581L184.379 50.3151C185.943 50.6851 187.704 51.0962 189.503 51.5178C192.855 52.2989 196.313 53.1075 198.85 53.7293C204.702 56.7704 207.888 63.2899 206.633 69.8302Z" fill="#FF5140"/>
<path fill-rule="evenodd" clip-rule="evenodd" d="M197.412 117.949L190.849 152.183C189.496 159.233 183.311 164.353 176.143 164.353C175.195 164.353 174.239 164.262 173.294 164.081L71.5359 144.603C67.6015 143.852 64.1982 141.613 61.9503 138.301C59.6994 134.988 58.8765 130.999 59.6313 127.072L66.544 91.0172C80.6484 75.1884 101.253 65.2098 124.205 65.2098C158.377 65.2098 187.35 87.3308 197.412 117.949Z" fill="#FFBD1C"/>
<path fill-rule="evenodd" clip-rule="evenodd" d="M129.754 84.4804C129.638 85.272 129.428 86.0228 129.132 86.7295C127.486 90.7216 123.253 93.2324 118.748 92.5665C113.447 91.7817 109.781 86.8892 110.56 81.6366C111.339 76.3874 116.269 72.7657 121.566 73.5505C121.586 73.5539 121.611 73.5573 121.631 73.5607C126.898 74.3761 130.529 79.2482 129.754 84.4804Z" fill="white"/>
<path fill-rule="evenodd" clip-rule="evenodd" d="M129.754 84.4803C129.639 85.272 129.428 86.0228 129.132 86.7295C127.547 87.9118 125.504 88.486 123.386 88.1735C119.186 87.5483 116.283 83.6717 116.898 79.5097C117.309 76.734 119.183 74.5358 121.631 73.5607C126.898 74.3761 130.529 79.2481 129.754 84.4803Z" fill="#160C65"/>
<path fill-rule="evenodd" clip-rule="evenodd" d="M163.883 91.5983C163.767 92.3899 163.556 93.1408 163.26 93.8474C161.615 97.8395 157.381 100.35 152.876 99.6844C147.575 98.8996 143.91 94.0071 144.688 88.7545C145.467 83.5053 150.397 79.8836 155.695 80.6684C155.715 80.6718 155.739 80.6752 155.759 80.6786C161.026 81.494 164.658 86.3661 163.883 91.5983Z" fill="white"/>
<path fill-rule="evenodd" clip-rule="evenodd" d="M163.883 91.5983C163.767 92.3899 163.556 93.1407 163.261 93.8474C161.676 95.0298 159.633 95.604 157.515 95.2914C153.315 94.6662 150.411 90.7896 151.027 86.6277C151.438 83.8519 153.312 81.6537 155.76 80.6786C161.027 81.494 164.658 86.3661 163.883 91.5983Z" fill="#160C65"/>
<path fill-rule="evenodd" clip-rule="evenodd" d="M88.9721 102.187C94.4573 96.3498 99.5012 97.1618 108.302 101.872C117.102 106.583 116.945 112.394 132.189 116.319C147.433 120.245 160.791 113.022 160.791 113.022C160.791 113.022 172.17 108.745 176.506 121.501C180.707 133.86 151.616 152.795 118.988 143.014C96.9867 136.419 80.9676 110.703 88.9721 102.187Z" fill="white"/>
<path fill-rule="evenodd" clip-rule="evenodd" d="M139.503 132.38C135.581 132.38 131.669 132.005 127.876 131.266C113.03 128.371 103 119.961 97.2014 113.416C90.9603 106.373 88.1853 100.013 88.0704 99.7452L87.8008 99.1194L89.3662 98.4521L89.6332 99.077C89.66 99.1391 92.4101 105.449 98.4819 112.299C104.106 118.644 113.827 126.795 128.201 129.598C131.888 130.317 135.69 130.681 139.503 130.681C149.5 130.681 158.075 128.168 163.509 126.059C172.296 122.649 177.833 118.491 177.888 118.45L178.428 118.04L179.457 119.389L178.918 119.801C178.862 119.844 173.236 124.105 164.135 127.639C158.565 129.802 149.77 132.38 139.503 132.38Z" fill="#FFBD1C"/>
<path d="M154.277 114.586L165.348 142.044" stroke="#FFBD1C" stroke-width="1.70047"/>
<path d="M139.845 112.808L144.194 146.982" stroke="#FFBD1C" stroke-width="1.70047"/>
<path d="M127.984 111.622L119.68 145.402" stroke="#FFBD1C" stroke-width="1.70047"/>
<path d="M120.075 105.499L100.305 135.13" stroke="#FFBD1C" stroke-width="1.70047"/>
<path d="M110.981 100.363L83.6987 119.327" stroke="#FFBD1C" stroke-width="1.70047"/>
<path fill-rule="evenodd" clip-rule="evenodd" d="M98.935 88.8703C98.935 90.6775 96.5892 92.1428 93.6953 92.1428C90.8014 92.1428 88.4556 90.6775 88.4556 88.8703C88.4556 87.0632 90.8014 85.5981 93.6953 85.5981C96.5892 85.5981 98.935 87.0632 98.935 88.8703Z" fill="#FF5040"/>
<path fill-rule="evenodd" clip-rule="evenodd" d="M180.598 108.668C179.694 110.233 176.929 110.33 174.423 108.884C171.916 107.438 170.618 104.998 171.522 103.432C172.427 101.867 175.191 101.771 177.698 103.216C180.204 104.662 181.502 107.103 180.598 108.668Z" fill="#FF5040"/>
<path fill-rule="evenodd" clip-rule="evenodd" d="M87.5781 62.5447C87.6914 62.5644 87.9243 62.6762 88.0283 62.6605C87.9365 62.6225 87.844 62.5844 87.7519 62.5467C87.8206 62.5804 87.8876 62.6181 87.9529 62.6585C88.2861 62.825 87.6016 62.3313 87.9518 62.6578C88.0372 62.7377 88.1348 62.9048 88.2327 62.9585C88.0508 62.7159 88.0035 62.6582 88.0912 62.7849C88.1256 62.8341 88.1582 62.8844 88.1892 62.9357C88.2609 63.0529 88.3184 63.2687 88.4122 63.3625L88.2976 63.0988C88.3259 63.1739 88.3514 63.2497 88.3748 63.3265C88.4095 63.4409 88.433 63.5571 88.4629 63.6727C88.5033 63.9051 88.5033 63.8813 88.4636 63.6013C88.4751 63.7063 88.4836 63.8116 88.4897 63.9169C88.4989 64.0753 88.502 64.2339 88.501 64.3923C88.4986 64.7646 88.4697 65.137 88.4336 65.5073C88.3663 66.1919 88.2664 66.8735 88.2391 67.5618C88.1759 69.1624 88.5203 70.7341 89.5112 72.0156C90.3731 73.1307 91.5924 73.8445 92.8318 74.4714C93.7829 74.9528 95.0875 74.7534 95.6231 73.7402C96.1141 72.812 95.9077 71.4656 94.8913 70.9509C94.3442 70.6743 93.7965 70.3937 93.2885 70.0491C93.2164 70.0002 93.1453 69.9503 93.0753 69.899C93.315 70.0882 93.351 70.1147 93.1827 69.9781C93.0882 69.8912 92.9893 69.8096 92.8978 69.7189C92.8369 69.6591 92.7778 69.5976 92.7206 69.5341C92.6098 69.4029 92.6084 69.4057 92.7166 69.5439C92.8216 69.6846 92.8237 69.6849 92.7227 69.545C92.6737 69.4736 92.6282 69.4009 92.5846 69.3262C92.5377 69.2453 92.4942 69.1624 92.4537 69.0778C92.4857 69.1549 92.5173 69.232 92.5493 69.3088C92.466 69.2619 92.4068 68.8692 92.385 68.7775C92.3538 68.6456 92.3449 68.4944 92.3055 68.3653C92.3456 68.6748 92.3544 68.7156 92.3317 68.4866C92.3245 68.3925 92.3194 68.2981 92.3164 68.2033C92.2926 67.5411 92.3619 66.882 92.4357 66.2249C92.621 64.5703 92.6669 62.9714 91.9828 61.4157C91.3942 60.0767 90.1436 58.8692 88.6625 58.6134C88.1093 58.5172 87.5921 58.5257 87.0906 58.8186C86.6676 59.0663 86.264 59.5508 86.1535 60.037C85.9277 61.027 86.4534 62.3503 87.5781 62.5447Z" fill="#160C65"/>
<path fill-rule="evenodd" clip-rule="evenodd" d="M98.7732 60.1197C98.8372 60.1591 99.0004 60.3154 99.0779 60.3201C98.8283 60.1221 98.7858 60.0912 98.9507 60.2274C98.981 60.2542 99.0113 60.2814 99.0419 60.3086C99.1313 60.3905 99.2176 60.4761 99.2999 60.5651C99.4172 60.6918 99.5563 60.9691 99.2911 60.5264C99.4166 60.7353 99.5655 60.9269 99.6794 61.1441C99.708 61.1981 99.7348 61.2524 99.7607 61.3075C99.827 61.4488 99.7991 61.3795 99.6774 61.0995C99.6808 61.2028 99.7688 61.3452 99.7994 61.4434C99.8355 61.5596 99.8671 61.6771 99.8939 61.796C99.9024 61.8354 99.9109 61.8752 99.9194 61.9146C99.9575 62.1344 99.9524 62.0736 99.9031 61.7328C99.8776 61.9418 99.9371 62.1837 99.9286 62.3991C99.9259 62.4762 99.9157 62.9261 99.9259 62.5513C99.9361 62.1779 99.8902 62.6712 99.8671 62.764C99.7947 63.0528 99.6991 63.3344 99.5954 63.613C99.1731 64.7485 98.6991 65.8391 98.7301 67.0809C98.7678 68.5928 99.406 69.911 100.666 70.7669C101.551 71.3676 102.967 70.9636 103.457 70.0357C104.003 69.0029 103.67 67.8878 102.725 67.2464C103.201 67.5698 102.92 67.3894 102.799 67.2844C102.518 67.0384 103.029 67.6564 102.862 67.3483C102.677 67.0068 102.988 67.8165 102.888 67.4349C102.86 67.3272 102.83 67.2171 102.801 67.1094C102.694 66.7255 102.821 67.6004 102.815 67.1968C102.814 67.0799 102.808 66.9654 102.812 66.8488C102.814 66.7904 102.818 66.7323 102.823 66.6746C102.838 66.5118 102.825 66.5968 102.785 66.9287C102.824 66.8274 102.828 66.6983 102.853 66.593C103.147 65.3937 103.768 64.3313 103.935 63.0936C104.281 60.5216 103.043 57.9609 100.833 56.5992C99.9228 56.0386 98.5478 56.3729 98.0415 57.3303C97.5145 58.3268 97.8025 59.5214 98.7732 60.1197Z" fill="#160C65"/>
<path fill-rule="evenodd" clip-rule="evenodd" d="M109.817 54.4198C109.99 54.9508 110.157 55.4856 110.266 56.034C110.276 56.0836 110.285 56.1335 110.294 56.1831C110.331 56.4135 110.328 56.3819 110.285 56.0883C110.335 56.1634 110.307 56.3744 110.309 56.459C110.312 56.582 110.305 56.7039 110.304 56.8266C110.303 57.2741 110.43 56.4355 110.296 56.8616C110.26 56.9771 110.225 57.0967 110.193 57.2132C110.128 57.447 110.383 56.8748 110.189 57.1867C110.051 57.4079 109.915 57.6294 109.773 57.8482C109.427 58.3789 109.14 58.9606 108.972 59.5735C108.324 61.9344 109.271 64.4174 110.548 66.3893C111.128 67.2835 112.385 67.7357 113.339 67.1208C114.234 66.5446 114.692 65.2892 114.072 64.3317C113.791 63.8979 113.531 63.4525 113.306 62.9873C113.277 62.9258 113.118 62.5446 113.234 62.8426C113.352 63.1501 113.187 62.7172 113.178 62.6928C113.097 62.4743 113.025 62.2525 112.965 62.0272C112.929 61.894 112.898 61.7598 112.871 61.6249L112.846 61.4907C112.818 61.3107 112.817 61.3113 112.844 61.4928C112.868 61.6745 112.87 61.6752 112.853 61.4958C112.85 61.4513 112.848 61.4068 112.845 61.3623C112.84 61.2295 112.84 61.0959 112.846 60.9634C112.849 60.9193 112.852 60.8751 112.855 60.8313C112.873 60.6529 112.871 60.6556 112.85 60.8398C112.824 61.0236 112.826 61.0266 112.858 60.8506C112.868 60.8075 112.878 60.7647 112.888 60.7215C112.91 60.6393 113.014 60.4208 113.008 60.34C113.02 60.497 112.834 60.7039 113.001 60.3916C113.236 59.9527 113.552 59.563 113.778 59.1193C114.143 58.4044 114.316 57.697 114.379 56.8993C114.474 55.6983 114.119 54.467 113.752 53.336C113.423 52.3232 112.324 51.5625 111.242 51.9121C110.229 52.2396 109.465 53.3336 109.817 54.4198Z" fill="#160C65"/>
<path fill-rule="evenodd" clip-rule="evenodd" d="M62.4561 20.2374C60.1011 17.852 56.3622 13.3306 55.1633 7.70629C54.996 6.92146 55.9032 6.33946 56.5472 6.81885C58.6556 8.38885 62.2021 12.014 63.9413 19.4118C64.1453 20.2792 63.0821 20.8714 62.4561 20.2374Z" fill="white"/>
<path fill-rule="evenodd" clip-rule="evenodd" d="M54.9157 25.9704C52.9967 24.9002 50.9025 23.4702 49.0551 21.6172C47.695 20.2534 49.2959 18.0334 51.0266 18.8784C52.7841 19.7363 54.844 21.1014 56.964 23.2724C58.3459 24.6868 56.6431 26.934 54.9157 25.9704Z" fill="white"/>
<path fill-rule="evenodd" clip-rule="evenodd" d="M71.602 12.1212C70.74 9.24213 69.9756 5.27348 70.5169 1.20119C70.7019 -0.190438 72.5996 -0.455445 73.1331 0.843771C74.0882 3.1704 74.9359 6.82547 74.2602 11.8925C74.0664 13.3487 72.0236 13.5288 71.602 12.1212Z" fill="white"/>
<path opacity="0.428037" fill-rule="evenodd" clip-rule="evenodd" d="M136.837 157.103L119.312 153.749L97.5132 33.6838L113.77 36.796L136.837 157.103Z" fill="white"/>
<path opacity="0.428037" fill-rule="evenodd" clip-rule="evenodd" d="M185.126 161.346C182.603 163.242 179.479 164.353 176.143 164.353C175.194 164.353 174.239 164.261 173.294 164.081L167.571 162.987L145.902 42.949L163.185 46.2582L185.126 161.346Z" fill="white"/>
<path opacity="0.428037" fill-rule="evenodd" clip-rule="evenodd" d="M114.236 152.777L107.772 151.541L86.3774 33.0246C87.5811 32.712 88.8395 32.5455 90.1282 32.5455C90.526 32.5455 90.9235 32.5629 91.3248 32.5934L114.236 152.777Z" fill="white"/>
<path fill-rule="evenodd" clip-rule="evenodd" d="M0.928573 126.665L1.55557 123.852L0.56543 121.146L3.37979 121.771L6.08092 120.787L5.45324 123.586L6.44373 126.291L3.62869 125.667L0.928573 126.665Z" fill="#FBFBFB"/>
<path fill-rule="evenodd" clip-rule="evenodd" d="M26.4314 112.387L27.6589 106.094L25.2964 100.135L31.5929 101.358L37.5419 99.0111L36.3111 105.271L38.6735 111.229L32.377 110.007L26.4314 112.387Z" fill="#FBFBFB"/>
<path fill-rule="evenodd" clip-rule="evenodd" d="M238.541 62.1083C236.554 64.8553 233.308 66.4915 229.865 66.4915C227.654 66.4915 225.534 65.8317 223.729 64.5787L167.915 25.9148C165.599 24.3094 164.058 21.9193 163.584 19.1812C163.274 17.4203 163.429 15.6542 164.017 14.0091C164.341 13.104 164.801 12.2343 165.385 11.4273C167.373 8.68044 170.619 7.03943 174.066 7.03943C176.272 7.03943 178.392 7.69923 180.202 8.95258L183.526 11.2534L236.011 47.6168C238.327 49.2218 239.868 51.6117 240.347 54.3497C240.821 57.0878 240.183 59.8432 238.541 62.1083Z" fill="#FFBD1C"/>
<path fill-rule="evenodd" clip-rule="evenodd" d="M243.424 65.7338C242.298 68.2844 240.228 70.2509 237.588 71.2759C235.824 71.9629 233.909 72.1725 232.044 71.8915C228.338 71.3251 225.174 68.8592 223.788 65.4529L203.107 14.5085C202.059 11.9268 202.1 9.10409 203.226 6.55356C204.352 4.00303 206.422 2.03688 209.062 1.01117C209.454 0.859636 209.855 0.73019 210.261 0.627584C211.674 0.257253 213.156 0.177071 214.606 0.39995C218.312 0.961902 221.476 3.42783 222.862 6.83895L225.247 12.7113L243.543 57.7788C244.591 60.3606 244.55 63.1874 243.424 65.7338Z" fill="#FFBD1C"/>
<path fill-rule="evenodd" clip-rule="evenodd" d="M202.588 48.8337C201.266 50.31 200.213 52.0308 199.507 53.944C198.198 57.489 194.195 59.3216 190.575 58.0421C186.951 56.7575 185.072 52.8472 186.385 49.3023C186.873 47.9776 187.456 46.7028 188.117 45.4807L197.61 47.26C199.369 47.5899 201.034 48.1206 202.588 48.8337Z" fill="#6E46FF"/>
<path fill-rule="evenodd" clip-rule="evenodd" d="M232.399 99.2388L352 135.806L343.981 56.4027L226.837 45.1833" fill="#FFBD1C"/>
<path fill-rule="evenodd" clip-rule="evenodd" d="M247.564 74.1344C247.564 94.2179 230.859 110.551 210.324 110.551C209.14 110.551 207.692 110.439 206.876 109.992C206.781 109.94 210.727 89.7641 210.927 89.7566C219.462 89.4458 226.309 82.5566 226.309 74.1344C226.309 65.5152 219.137 58.5055 210.324 58.5055C205.71 58.5055 201.315 60.4675 198.265 63.8922C196.962 65.3457 195.963 67.0044 195.288 68.8238C193.775 72.9259 189.758 75.6817 185.294 75.6817C184.068 75.6817 182.851 75.4765 181.688 75.062C181.592 75.0263 181.496 74.9906 181.401 74.955C176.071 72.8991 173.349 67.0448 175.305 61.7518C175.884 60.1825 176.595 58.6125 177.421 57.0877C177.484 56.9715 177.548 56.856 177.617 56.7398C184.15 44.9945 196.647 37.7177 210.324 37.7177C230.859 37.7177 247.564 54.0554 247.564 74.1344Z" fill="#FFBD1C"/>
<path fill-rule="evenodd" clip-rule="evenodd" d="M185.395 68.0481C184.689 70.9819 183.202 73.4254 181.401 74.955C176.072 72.8991 173.35 67.0448 175.306 61.7518C175.884 60.1825 176.596 58.6129 177.421 57.0877C177.485 56.9715 177.549 56.856 177.617 56.7398C178.711 56.2628 179.856 56.1112 180.968 56.3698C184.757 57.2436 186.74 62.4697 185.395 68.0481Z" fill="white"/>
<path fill-rule="evenodd" clip-rule="evenodd" d="M263.994 48.6248L268.336 120.821C268.466 122.991 269.867 124.892 271.93 125.698L277.639 127.932C281.643 129.498 285.916 126.343 285.472 122.148L348.606 144.109L340.145 51.1712L263.994 48.6248Z" fill="white"/>
<path fill-rule="evenodd" clip-rule="evenodd" d="M282.359 79.894L285.472 122.148L290.595 124.198L289.381 99.7088C289.214 96.3316 288.501 93.0017 287.268 89.8427L282.359 79.894Z" fill="#FFBD1C"/>
<path fill-rule="evenodd" clip-rule="evenodd" d="M280.074 115.484C280.074 117.789 278.163 119.658 275.806 119.658C273.449 119.658 271.538 117.789 271.538 115.484C271.538 113.178 273.449 111.309 275.806 111.309C278.163 111.309 280.074 113.178 280.074 115.484Z" fill="#FF5040"/>
<path fill-rule="evenodd" clip-rule="evenodd" d="M183.056 15.4992C181.073 19.6414 174.941 20.9257 169.356 18.3704C167.099 17.3406 165.276 15.8379 164.04 14.1391C164.364 13.2337 164.824 12.3639 165.408 11.5573C167.395 8.81044 170.642 7.16943 174.088 7.16943C176.295 7.16943 178.415 7.82957 180.225 9.08224L183.548 11.3834C183.818 12.7968 183.672 14.2101 183.056 15.4992Z" fill="white"/>
<path fill-rule="evenodd" clip-rule="evenodd" d="M225.133 12.7556C224.385 13.8347 223.378 14.7173 222.138 15.297C217.857 17.308 212.445 14.9891 210.047 10.1113C208.446 6.85646 208.597 3.28429 210.147 0.671591C211.56 0.3016 213.042 0.220739 214.492 0.443956C218.198 1.00591 221.362 3.47184 222.748 6.88296L225.133 12.7556Z" fill="white"/>
</svg>
